<?xml version="1.0" encoding="UTF-8" standalone="no"?>
<!-- Created with Inkscape (http://www.inkscape.org/) -->

<svg
   width="2.1689479mm"
   height="2.8050599mm"
   viewBox="0 0 2.1689479 2.8050599"
   version="1.1"
   id="svg1"
   inkscape:version="1.3.2 (091e20e, 2023-11-25, custom)"
   sodipodi:docname="logo.svg"
   xmlns:inkscape="http://www.inkscape.org/namespaces/inkscape"
   xmlns:sodipodi="http://sodipodi.sourceforge.net/DTD/sodipodi-0.dtd"
   xmlns="http://www.w3.org/2000/svg"
   xmlns:svg="http://www.w3.org/2000/svg">
  <sodipodi:namedview
     id="namedview1"
     pagecolor="#ffffff"
     bordercolor="#000000"
     borderopacity="0.25"
     inkscape:showpageshadow="2"
     inkscape:pageopacity="0.0"
     inkscape:pagecheckerboard="0"
     inkscape:deskcolor="#d1d1d1"
     inkscape:document-units="px"
     inkscape:zoom="16"
     inkscape:cx="-4.4375"
     inkscape:cy="9.96875"
     inkscape:window-width="1920"
     inkscape:window-height="1009"
     inkscape:window-x="-8"
     inkscape:window-y="-8"
     inkscape:window-maximized="1"
     inkscape:current-layer="layer1" />
  <defs
     id="defs1" />
  <g
     inkscape:label="Camada 1"
     inkscape:groupmode="layer"
     id="layer1"
     transform="translate(-44.063478,-123.54922)">
    <path
       id="text1"
       style="font-size:3.175px;font-family:'Fira Code';-inkscape-font-specification:'Fira Code, @wght=700';font-variation-settings:'wght' 700;fill:#f97316;stroke-width:0.264583"
       d="m 45.784326,124.70333 c 0,0.14393 -0.0102,0.2817 -0.04286,0.4064 0.009,0.0685 0.35487,0.38184 0.35487,0.38184 0,0 -0.441754,-0.0904 -0.499333,-0.0469 -0.07207,0.0975 -0.159808,0.17568 -0.276225,0.23495 0.115359,0.0191 0.213784,0.0476 0.295275,0.0857 0.08255,0.0371 0.1524,0.0905 0.20955,0.16033 0.05821,0.0709 0.107419,0.16564 0.147638,0.28417 l -0.42545,0.14446 c -0.04657,-0.11007 -0.09684,-0.20267 -0.150813,-0.27781 -0.05397,-0.0752 -0.121707,-0.13177 -0.2032,-0.16987 -0.08043,-0.0381 -0.184679,-0.0571 -0.312737,-0.0571 -0.183092,0 -0.335492,-0.046 -0.4572,-0.13811 -0.12065,-0.0921 -0.211138,-0.22331 -0.271463,-0.3937 -0.05927,-0.17145 -0.0889,-0.37623 -0.0889,-0.61436 0,-0.23283 0.03122,-0.4355 0.09366,-0.60801 0.0635,-0.17251 0.15875,-0.30639 0.28575,-0.40164 0.128058,-0.0963 0.287866,-0.14446 0.479425,-0.14446 0.192617,0 0.344553,0.0445 0.479425,0.1397 0.06408,0.0829 0.546902,0.24493 0.830688,0.51401 -0.225214,-0.0909 -0.486587,-0.12408 -0.543351,-0.11558 0.07046,0.17187 0.09525,0.37782 0.09525,0.61595 z m -0.542925,0 c 0,-0.26882 -0.0217,-0.46461 -0.06509,-0.58738 -0.04339,-0.12277 -0.12806,-0.18415 -0.254,-0.18415 -0.123825,0 -0.208492,0.0619 -0.254,0.18574 -0.02458,0.0679 0.261409,0.58351 0.261409,0.58351 0,0 -0.328089,-0.11729 -0.328089,0.002 0,0.26881 0.02275,0.46513 0.06826,0.58896 0.04657,0.12383 0.130704,0.18574 0.252413,0.18574 0.127,0 0.211667,-0.0619 0.254,-0.18574 0.04339,-0.12488 0.06509,-0.3212 0.06509,-0.58896 z"
       sodipodi:nodetypes="cccccccccscsccsccscccccsssccscscss" />
  </g>
</svg>
